{
  "accessors": [
    {
      "bufferView": 3,
      "componentType": 5126,
      "count": 1045,
      "max": [
        0.5029041171073914,
        2.000000238418579,
        0.6446041464805603
      ],
      "min": [
        -0.49709707498550415,
        -2.5835072392510483e-07,
        -0.7553959488868713
      ],
      "type": "VEC3"
    },
    {
      "bufferView": 3,
      "byteOffset": 12540,
      "componentType": 5126,
      "count": 1045,
      "max": [
        1.0,
        0.9999767541885376,
        0.9999843835830688
      ],
      "min": [
        -1.0,
        -0.9969172477722168,
        -0.9969173073768616
      ],
      "type": "VEC3"
    },
    {
      "bufferView": 4,
      "componentType": 5126,
      "count": 1045,
      "max": [
        1.0,
        0.9985589385032654,
        1.0,
        1.0
      ],
      "min": [
        -1.0,
        -1.0,
        -1.0,
        1.0
      ],
      "type": "VEC4"
    },
    {
      "bufferView": 2,
      "componentType": 5126,
      "count": 1045,
      "max": [
        0.9582667350769043,
        0.9889895915985107
      ],
      "min": [
        0.010946547612547874,
        0.011010408401489258
      ],
      "type": "VEC2"
    },
    {
      "bufferView": 1,
      "componentType": 5125,
      "count": 3336,
      "type": "SCALAR"
    },
    {
      "bufferView": 5,
      "componentType": 5126,
      "count": 5,
      "max": [
        100.0,
        0.00030953832902014256,
        0.0,
        0.0,
        0.0,
        100.0,
        0.0,
        0.0,
        0.00030953838722780347,
        0.7075331807136536,
        100.0,
        0.0,
        0.0,
        0.0,
        0.9593143463134766,
        1.0
      ],
      "min": [
        0.9999996423721313,
        0.0,
        -0.0007479293271899223,
        0.0,
        -0.0007479296182282269,
        0.7066799998283386,
        -0.707532525062561,
        0.0,
        0.0,
        0.0,
        0.7066797018051147,
        0.0,
        -0.0016480142949149013,
        -1.400208830833435,
        0.0,
        1.0
      ],
      "type": "MAT4"
    },
    {
      "bufferView": 0,
      "componentType": 5123,
      "count": 1045,
      "type": "VEC4"
    },
    {
      "bufferView": 4,
      "byteOffset": 16720,
      "componentType": 5126,
      "count": 1045,
      "max": [
        1.0,
        0.0,
        0.0,
        0.0
      ],
      "min": [
        1.0,
        0.0,
        0.0,
        0.0
      ],
      "type": "VEC4"
    },
    {
      "bufferView": 6,
      "componentType": 5126,
      "count": 1,
      "max": [
        0.0
      ],
      "min": [
        0.0
      ],
      "type": "SCALAR"
    },
    {
      "bufferView": 7,
      "componentType": 5126,
      "count": 1,
      "max": [
        0.0027989321388304234,
        -0.3127662241458893,
        1.6682453155517578
      ],
      "min": [
        0.0027989321388304234,
        -0.3127662241458893,
        1.6682453155517578
      ],
      "type": "VEC3"
    },
    {
      "bufferView": 6,
      "byteOffset": 4,
      "componentType": 5126,
      "count": 33,
      "max": [
        0.6339666843414307
      ],
      "min": [
        0.0
      ],
      "type": "SCALAR"
    },
    {
      "bufferView": 7,
      "byteOffset": 12,
      "componentType": 5126,
      "count": 33,
      "max": [
        0.0027923898305743933,
        -0.22355946898460388,
        1.653267502784729
      ],
      "min": [
        0.0027705016545951366,
        -0.29777035117149353,
        1.5791460275650024
      ],
      "type": "VEC3"
    }
  ],
  "animations": [
    {
      "channels": [
        {
          "sampler": 0,
          "target": {
            "node": 12,
            "path": "translation"
          }
        }
      ],
      "name": "static",
      "samplers": [
        {
          "input": 8,
          "interpolation": "LINEAR",
          "output": 9
        }
      ]
    },
    {
      "channels": [
        {
          "sampler": 0,
          "target": {
            "node": 12,
            "path": "translation"
          }
        }
      ],
      "name": "push",
      "samplers": [
        {
          "input": 10,
          "interpolation": "LINEAR",
          "output": 11
        }
      ]
    }
  ],
  "asset": {
    "extras": {
      "author": "lorib2306 (https://sketchfab.com/lorib2306)",
      "license": "CC-BY-4.0 (http://creativecommons.org/licenses/by/4.0/)",
      "source": "https://sketchfab.com/3d-models/scifi-button-8dcd82d477e441d7b6789f1851924b5f",
      "title": "Scifi button"
    },
    "generator": "Sketchfab-13.42.0",
    "version": "2.0"
  },
  "bufferViews": [
    {
      "buffer": 0,
      "byteLength": 8360,
      "byteStride": 8,
      "name": "shortBufferViews",
      "target": 34962
    },
    {
      "buffer": 0,
      "byteLength": 13344,
      "byteOffset": 8360,
      "name": "floatBufferViews",
      "target": 34963
    },
    {
      "buffer": 0,
      "byteLength": 8360,
      "byteOffset": 21704,
      "byteStride": 8,
      "name": "floatBufferViews",
      "target": 34962
    },
    {
      "buffer": 0,
      "byteLength": 25080,
      "byteOffset": 30064,
      "byteStride": 12,
      "name": "floatBufferViews",
      "target": 34962
    },
    {
      "buffer": 0,
      "byteLength": 33440,
      "byteOffset": 55144,
      "byteStride": 16,
      "name": "floatBufferViews",
      "target": 34962
    },
    {
      "buffer": 0,
      "byteLength": 320,
      "byteOffset": 88584,
      "name": "floatBufferViews"
    },
    {
      "buffer": 0,
      "byteLength": 136,
      "byteOffset": 88904,
      "name": "floatBufferViews"
    },
    {
      "buffer": 0,
      "byteLength": 408,
      "byteOffset": 89040,
      "byteStride": 12,
      "name": "floatBufferViews"
    }
  ],
  "buffers": [
    {
      "byteLength": 89448,
      "uri": "scene.bin"
    }
  ],
  "images": [
    {
      "uri": "textures/UV_switch_baseColor.png"
    },
    {
      "uri": "textures/UV_switch_metallicRoughness.png"
    },
    {
      "uri": "textures/UV_switch_emissive.png"
    },
    {
      "uri": "textures/UV_switch_normal.png"
    }
  ],
  "materials": [
    {
      "doubleSided": true,
      "emissiveFactor": [
        1.0,
        1.0,
        1.0
      ],
      "emissiveTexture": {
        "index": 2
      },
      "name": "UV_switch",
      "normalTexture": {
        "index": 3
      },
      "pbrMetallicRoughness": {
        "baseColorTexture": {
          "index": 0
        },
        "metallicRoughnessTexture": {
          "index": 1
        }
      }
    }
  ],
  "meshes": [
    {
      "name": "switch_UV_switch_0",
      "primitives": [
        {
          "attributes": {
            "JOINTS_0": 6,
            "NORMAL": 1,
            "POSITION": 0,
            "TANGENT": 2,
            "TEXCOORD_0": 3,
            "TEXCOORD_1": 3,
            "TEXCOORD_2": 3,
            "TEXCOORD_3": 3,
            "WEIGHTS_0": 7
          },
          "indices": 4,
          "material": 0,
          "mode": 4
        }
      ]
    }
  ],
  "nodes": [
    {
      "children": [
        1
      ],
      "matrix": [
        1.0,
        0.0,
        0.0,
        0.0,
        0.0,
        2.220446049250313e-16,
        -1.0,
        0.0,
        0.0,
        1.0,
        2.220446049250313e-16,
        0.0,
        0.0,
        0.0,
        0.0,
        1.0
      ],
      "name": "Sketchfab_model"
    },
    {
      "children": [
        2
      ],
      "matrix": [
        0.009999999776482582,
        0.0,
        0.0,
        0.0,
        0.0,
        0.0,
        0.009999999776482582,
        0.0,
        0.0,
        -0.009999999776482582,
        0.0,
        0.0,
        0.0,
        0.0,
        0.0,
        1.0
      ],
      "name": "5c52d278dd394752ad0f43f6b0fcd2db.fbx"
    },
    {
      "children": [
        3
      ],
      "name": "Object_2"
    },
    {
      "children": [
        4,
        5
      ],
      "name": "RootNode"
    },
    {
      "name": "switch",
      "rotation": [
        -0.7071068286895752,
        0.0,
        0.0,
        0.7071067094802856
      ],
      "scale": [
        100.0,
        100.0,
        100.0
      ]
    },
    {
      "children": [
        6
      ],
      "name": "switch_armature",
      "rotation": [
        -0.7071068286895752,
        0.0,
        0.0,
        0.7071067094802856
      ],
      "scale": [
        100.0,
        100.0,
        100.0
      ]
    },
    {
      "children": [
        7,
        9,
        8
      ],
      "name": "Object_6"
    },
    {
      "children": [
        10,
        12
      ],
      "name": "_rootJoint"
    },
    {
      "matrix": [
        100.0,
        0.0,
        0.0,
        0.0,
        0.0,
        6.123233995736766e-15,
        -100.0,
        0.0,
        0.0,
        100.0,
        6.123233995736766e-15,
        0.0,
        0.0,
        0.0,
        0.0,
        1.0
      ],
      "name": "Object_8"
    },
    {
      "mesh": 0,
      "name": "Object_9",
      "skin": 0
    },
    {
      "children": [
        11
      ],
      "name": "root_00",
      "rotation": [
        0.7071068286895752,
        0.0,
        0.0,
        0.7071067094802856
      ]
    },
    {
      "name": "root_end_02",
      "translation": [
        0.0,
        1.0,
        0.0
      ]
    },
    {
      "children": [
        13
      ],
      "name": "button_01",
      "rotation": [
        0.9239948391914368,
        9.30636904344917e-12,
        -0.00040472601540386677,
        0.38240480422973633
      ],
      "scale": [
        1.0,
        1.0000001192092896,
        1.0000004768371582
      ],
      "translation": [
        0.0027923898305743933,
        -0.29777035117149353,
        1.653267502784729
      ]
    },
    {
      "name": "button_end_03",
      "rotation": [
        1.1102230246251565e-16,
        -2.710505431213761e-20,
        -9.486769009248164e-20,
        1.0
      ],
      "translation": [
        0.0,
        0.20246157050132751,
        1.1102230246251565e-16
      ]
    }
  ],
  "samplers": [
    {
      "magFilter": 9729,
      "minFilter": 9987,
      "wrapS": 10497,
      "wrapT": 10497
    }
  ],
  "scene": 0,
  "scenes": [
    {
      "name": "Sketchfab_Scene",
      "nodes": [
        0
      ]
    }
  ],
  "skins": [
    {
      "inverseBindMatrices": 5,
      "joints": [
        7,
        10,
        11,
        12,
        13
      ],
      "skeleton": 7
    }
  ],
  "textures": [
    {
      "sampler": 0,
      "source": 0
    },
    {
      "sampler": 0,
      "source": 1
    },
    {
      "sampler": 0,
      "source": 2
    },
    {
      "sampler": 0,
      "source": 3
    }
  ]
}
