{"accessors" : [{"bufferView" : 0, "byteOffset" : 0, "componentType" : 5123, "count" : 960, "type" : "SCALAR", "max" : [787], "min" : [0]}, {"bufferView" : 1, "byteOffset" : 0, "componentType" : 5126, "count" : 788, "type" : "VEC3", "max" : [8.998000144958496, 6.558000087738037, 8.998000144958496], "min" : [-8.998000144958496, 0, -8.998000144958496], "name" : "POSITION"}, {"bufferView" : 1, "byteOffset" : 12, "componentType" : 5126, "count" : 788, "type" : "VEC2", "max" : [2, -0], "min" : [0, -0.9761000275611877], "name" : "TEXCOORD_0"}, {"bufferView" : 1, "byteOffset" : 20, "componentType" : 5126, "count" : 788, "type" : "VEC3", "max" : [1.0000044107437134, 1.0000044107437134, 1.0000044107437134], "min" : [-1.0000044107437134, -1.0000044107437134, -1.0000044107437134], "name" : "NORMAL"}], "asset" : {"generator" : "Aspose.3D 22.7", "version" : "2.0"}, "buffers" : [{"uri" : "data:application/octet-stream;base64,", "byteLength" : 32648}], "bufferViews" : [{"buffer" : 0, "byteOffset" : 0, "byteLength" : 1920, "target" : 34963}, {"buffer" : 0, "byteOffset" : 1924, "byteLength" : 30720, "byteStride" : 32, "target" : 34962}], "meshes" : [{"primitives" : [{"attributes" : {"POSITION" : 1, "TEXCOORD_0" : 2, "NORMAL" : 3}, "indices" : 0, "mode" : 4}], "name" : ""}], "nodes" : [{"mesh" : 0, "name" : "Layer0_001"}], "scene" : 0, "scenes" : [{"nodes" : [0]}]}