{
  "accessors": [
    {
      "bufferView": 2,
      "componentType": 5126,
      "count": 874,
      "max": [
        0.4799180030822754,
        0.48025399446487427,
        0.4215039908885956
      ],
      "min": [
        -0.4798409938812256,
        -0.4793500006198883,
        -0.0006779999821446836
      ],
      "type": "VEC3"
    },
    {
      "bufferView": 2,
      "byteOffset": 10488,
      "componentType": 5126,
      "count": 874,
      "max": [
        1.0,
        1.0,
        1.0
      ],
      "min": [
        -1.0,
        -1.0,
        -1.0
      ],
      "type": "VEC3"
    },
    {
      "bufferView": 1,
      "componentType": 5126,
      "count": 874,
      "max": [
        0.75,
        0.875
      ],
      "min": [
        0.25,
        0.625
      ],
      "type": "VEC2"
    },
    {
      "bufferView": 0,
      "componentType": 5125,
      "count": 4896,
      "type": "SCALAR"
    },
    {
      "bufferView": 2,
      "byteOffset": 20976,
      "componentType": 5126,
      "count": 855,
      "max": [
        0.294405996799469,
        0.29107001423835754,
        0.44313400983810425
      ],
      "min": [
        -0.294063001871109,
        -0.29739901423454285,
        0.4026220142841339
      ],
      "type": "VEC3"
    },
    {
      "bufferView": 2,
      "byteOffset": 31236,
      "componentType": 5126,
      "count": 855,
      "max": [
        0.999995231628418,
        0.999995231628418,
        -0.002999907359480858
      ],
      "min": [
        -0.999995231628418,
        -0.999995231628418,
        -1.0
      ],
      "type": "VEC3"
    },
    {
      "bufferView": 1,
      "byteOffset": 6992,
      "componentType": 5126,
      "count": 855,
      "max": [
        1.0,
        1.0
      ],
      "min": [
        0.0,
        0.0
      ],
      "type": "VEC2"
    },
    {
      "bufferView": 0,
      "byteOffset": 19584,
      "componentType": 5125,
      "count": 4320,
      "type": "SCALAR"
    },
    {
      "bufferView": 2,
      "byteOffset": 41496,
      "componentType": 5126,
      "count": 736,
      "max": [
        0.20948100090026855,
        0.20989499986171722,
        0.594385027885437
      ],
      "min": [
        -0.20940400660037994,
        -0.20899100601673126,
        0.4034630060195923
      ],
      "type": "VEC3"
    },
    {
      "bufferView": 2,
      "byteOffset": 50328,
      "componentType": 5126,
      "count": 736,
      "max": [
        1.0,
        1.0,
        0.0
      ],
      "min": [
        -1.0,
        -1.0,
        -1.0
      ],
      "type": "VEC3"
    },
    {
      "bufferView": 1,
      "byteOffset": 13832,
      "componentType": 5126,
      "count": 736,
      "max": [
        0.0,
        0.0
      ],
      "min": [
        0.0,
        0.0
      ],
      "type": "VEC2"
    },
    {
      "bufferView": 0,
      "byteOffset": 36864,
      "componentType": 5125,
      "count": 4224,
      "type": "SCALAR"
    },
    {
      "bufferView": 2,
      "byteOffset": 59160,
      "componentType": 5126,
      "count": 737,
      "max": [
        0.2441989928483963,
        0.24461300671100616,
        0.7817280292510986
      ],
      "min": [
        -0.24412299692630768,
        -0.243708997964859,
        0.48698800802230835
      ],
      "type": "VEC3"
    },
    {
      "bufferView": 2,
      "byteOffset": 68004,
      "componentType": 5126,
      "count": 737,
      "max": [
        1.0,
        1.0,
        0.9999929666519165
      ],
      "min": [
        -1.0,
        -1.0,
        -1.0
      ],
      "type": "VEC3"
    },
    {
      "bufferView": 1,
      "byteOffset": 19720,
      "componentType": 5126,
      "count": 737,
      "max": [
        0.9367169737815857,
        0.971750020980835
      ],
      "min": [
        0.08110000193119049,
        0.017457999289035797
      ],
      "type": "VEC2"
    },
    {
      "bufferView": 0,
      "byteOffset": 53760,
      "componentType": 5125,
      "count": 4128,
      "type": "SCALAR"
    },
    {
      "bufferView": 2,
      "byteOffset": 76848,
      "componentType": 5126,
      "count": 7824,
      "max": [
        0.3978250026702881,
        0.4132550060749054,
        0.4378030002117157
      ],
      "min": [
        -0.3977069854736328,
        -0.40999799966812134,
        0.352167010307312
      ],
      "type": "VEC3"
    },
    {
      "bufferView": 2,
      "byteOffset": 170736,
      "componentType": 5126,
      "count": 7824,
      "max": [
        1.0,
        1.0,
        1.0
      ],
      "min": [
        -1.0,
        -1.0,
        -1.0
      ],
      "type": "VEC3"
    },
    {
      "bufferView": 0,
      "byteOffset": 70272,
      "componentType": 5125,
      "count": 31608,
      "type": "SCALAR"
    }
  ],
  "asset": {
    "extras": {
      "author": "matacu.tec (https://sketchfab.com/matacu.tec)",
      "license": "CC-BY-4.0 (http://creativecommons.org/licenses/by/4.0/)",
      "source": "https://sketchfab.com/3d-models/reset-mundial-1220f8a0ccfa40bd83e231e99e7595a6",
      "title": "Reset mundial"
    },
    "generator": "Sketchfab-12.67.0",
    "version": "2.0"
  },
  "bufferViews": [
    {
      "buffer": 0,
      "byteLength": 196704,
      "name": "floatBufferViews",
      "target": 34963
    },
    {
      "buffer": 0,
      "byteLength": 25616,
      "byteOffset": 196704,
      "byteStride": 8,
      "name": "floatBufferViews",
      "target": 34962
    },
    {
      "buffer": 0,
      "byteLength": 264624,
      "byteOffset": 222320,
      "byteStride": 12,
      "name": "floatBufferViews",
      "target": 34962
    }
  ],
  "buffers": [
    {
      "byteLength": 486944,
      "uri": "scene.bin"
    }
  ],
  "images": [
    {
      "uri": "textures/Material.003_baseColor.png"
    }
  ],
  "materials": [
    {
      "doubleSided": true,
      "name": "Material",
      "pbrMetallicRoughness": {
        "baseColorFactor": [
          1.0,
          0.55407909123472,
          0.0,
          1.0
        ],
        "metallicFactor": 0.0,
        "roughnessFactor": 0.6
      }
    },
    {
      "doubleSided": true,
      "name": "Material.001",
      "pbrMetallicRoughness": {
        "baseColorFactor": [
          0.0020548508178306287,
          0.0020548508178306287,
          0.0020548508178306287,
          1.0
        ],
        "metallicFactor": 0.0,
        "roughnessFactor": 0.46988338227872734
      }
    },
    {
      "doubleSided": true,
      "name": "Material.002",
      "pbrMetallicRoughness": {
        "baseColorFactor": [
          0.290387141204943,
          0.290387141204943,
          0.290387141204943,
          1.0
        ],
        "roughnessFactor": 0.5124445944220491
      }
    },
    {
      "doubleSided": true,
      "name": "Material.003",
      "pbrMetallicRoughness": {
        "baseColorTexture": {
          "index": 0
        },
        "metallicFactor": 0.0,
        "roughnessFactor": 0.2509971483987864
      }
    },
    {
      "doubleSided": true,
      "name": "Material.004",
      "pbrMetallicRoughness": {
        "baseColorFactor": [
          0.6751395395437068,
          0.6751395395437068,
          0.6751395395437068,
          1.0
        ],
        "roughnessFactor": 0.6
      }
    }
  ],
  "meshes": [
    {
      "name": "Object_0",
      "primitives": [
        {
          "attributes": {
            "NORMAL": 1,
            "POSITION": 0,
            "TEXCOORD_0": 2
          },
          "indices": 3,
          "material": 0,
          "mode": 4
        }
      ]
    },
    {
      "name": "Object_1",
      "primitives": [
        {
          "attributes": {
            "NORMAL": 5,
            "POSITION": 4,
            "TEXCOORD_0": 6
          },
          "indices": 7,
          "material": 1,
          "mode": 4
        }
      ]
    },
    {
      "name": "Object_2",
      "primitives": [
        {
          "attributes": {
            "NORMAL": 9,
            "POSITION": 8,
            "TEXCOORD_0": 10
          },
          "indices": 11,
          "material": 2,
          "mode": 4
        }
      ]
    },
    {
      "name": "Object_3",
      "primitives": [
        {
          "attributes": {
            "NORMAL": 13,
            "POSITION": 12,
            "TEXCOORD_0": 14
          },
          "indices": 15,
          "material": 3,
          "mode": 4
        }
      ]
    },
    {
      "name": "Object_4",
      "primitives": [
        {
          "attributes": {
            "NORMAL": 17,
            "POSITION": 16
          },
          "indices": 18,
          "material": 4,
          "mode": 4
        }
      ]
    }
  ],
  "nodes": [
    {
      "children": [
        1
      ],
      "matrix": [
        1.0,
        0.0,
        0.0,
        0.0,
        0.0,
        2.220446049250313e-16,
        -1.0,
        0.0,
        0.0,
        1.0,
        2.220446049250313e-16,
        0.0,
        0.0,
        0.0,
        0.0,
        1.0
      ],
      "name": "Sketchfab_model"
    },
    {
      "children": [
        2,
        3,
        4,
        5,
        6
      ],
      "name": "reset.obj.cleaner.materialmerger.gles"
    },
    {
      "mesh": 0,
      "name": "Object_2"
    },
    {
      "mesh": 1,
      "name": "Object_3"
    },
    {
      "mesh": 2,
      "name": "Object_4"
    },
    {
      "mesh": 3,
      "name": "Object_5"
    },
    {
      "mesh": 4,
      "name": "Object_6"
    }
  ],
  "samplers": [
    {
      "magFilter": 9729,
      "minFilter": 9987,
      "wrapS": 10497,
      "wrapT": 10497
    }
  ],
  "scene": 0,
  "scenes": [
    {
      "name": "Sketchfab_Scene",
      "nodes": [
        0
      ]
    }
  ],
  "textures": [
    {
      "sampler": 0,
      "source": 0
    }
  ]
}
