{
  "accessors": [
    {
      "bufferView": 2,
      "componentType": 5126,
      "count": 2392,
      "max": [
        410.2099914550781,
        410.2099914550781,
        20.728424072265625
      ],
      "min": [
        -410.2099914550781,
        -410.2099914550781,
        0.0
      ],
      "type": "VEC3"
    },
    {
      "bufferView": 2,
      "byteOffset": 28704,
      "componentType": 5126,
      "count": 2392,
      "max": [
        1.0,
        1.0,
        1.0
      ],
      "min": [
        -1.0,
        -1.0,
        -1.0
      ],
      "type": "VEC3"
    },
    {
      "bufferView": 1,
      "componentType": 5126,
      "count": 2392,
      "max": [
        3.9892501831054688,
        0.9825632572174072
      ],
      "min": [
        -2.989250659942627,
        0.01743665337562561
      ],
      "type": "VEC2"
    },
    {
      "bufferView": 0,
      "componentType": 5125,
      "count": 3492,
      "type": "SCALAR"
    },
    {
      "bufferView": 2,
      "byteOffset": 57408,
      "componentType": 5126,
      "count": 65532,
      "max": [
        409.2099914550781,
        175.6699981689453,
        34.9609375
      ],
      "min": [
        -411.03179931640625,
        -175.67005920410156,
        -785.9427490234375
      ],
      "type": "VEC3"
    },
    {
      "bufferView": 2,
      "byteOffset": 843792,
      "componentType": 5126,
      "count": 65532,
      "max": [
        1.0,
        1.0,
        1.0
      ],
      "min": [
        -1.0,
        -1.0,
        -1.0
      ],
      "type": "VEC3"
    },
    {
      "bufferView": 1,
      "byteOffset": 19136,
      "componentType": 5126,
      "count": 65532,
      "max": [
        4.379758834838867,
        3.8518621921539307
      ],
      "min": [
        -3.379758596420288,
        -3.352144718170166
      ],
      "type": "VEC2"
    },
    {
      "bufferView": 0,
      "byteOffset": 13968,
      "componentType": 5125,
      "count": 339807,
      "type": "SCALAR"
    },
    {
      "bufferView": 2,
      "byteOffset": 1630176,
      "componentType": 5126,
      "count": 7389,
      "max": [
        408.873779296875,
        175.5138702392578,
        34.9609375
      ],
      "min": [
        -410.6955871582031,
        -175.255615234375,
        -785.5723876953125
      ],
      "type": "VEC3"
    },
    {
      "bufferView": 2,
      "byteOffset": 1718844,
      "componentType": 5126,
      "count": 7389,
      "max": [
        1.0,
        1.0,
        1.0
      ],
      "min": [
        -1.0,
        -1.0,
        -1.0
      ],
      "type": "VEC3"
    },
    {
      "bufferView": 1,
      "byteOffset": 543392,
      "componentType": 5126,
      "count": 7389,
      "max": [
        2.548907518386841,
        2.547520160675049
      ],
      "min": [
        -1.548907995223999,
        -1.5484027862548828
      ],
      "type": "VEC2"
    },
    {
      "bufferView": 0,
      "byteOffset": 1373196,
      "componentType": 5125,
      "count": 36609,
      "type": "SCALAR"
    },
    {
      "bufferView": 2,
      "byteOffset": 1807512,
      "componentType": 5126,
      "count": 13688,
      "max": [
        19.635055541992188,
        19.634963989257813,
        4.887866973876953
      ],
      "min": [
        -799.9188232421875,
        -800.3540649414063,
        0.9975782632827759
      ],
      "type": "VEC3"
    },
    {
      "bufferView": 2,
      "byteOffset": 1971768,
      "componentType": 5126,
      "count": 13688,
      "max": [
        1.0,
        1.0,
        1.0
      ],
      "min": [
        -1.0,
        -1.0,
        -1.0
      ],
      "type": "VEC3"
    },
    {
      "bufferView": 1,
      "byteOffset": 602504,
      "componentType": 5126,
      "count": 13688,
      "max": [
        4.378508567810059,
        4.365499496459961
      ],
      "min": [
        -3.3785085678100586,
        0.3204830288887024
      ],
      "type": "VEC2"
    },
    {
      "bufferView": 0,
      "byteOffset": 1519632,
      "componentType": 5125,
      "count": 13968,
      "type": "SCALAR"
    }
  ],
  "asset": {
    "extras": {
      "author": "Zuo Modern (https://sketchfab.com/zuo)",
      "license": "CC-BY-NC-ND-4.0 (http://creativecommons.org/licenses/by-nc-nd/4.0/)",
      "source": "https://sketchfab.com/3d-models/civic-center-square-coffee-table-98122-43adfbede0d0490b91afb4e52a7c91f8",
      "title": "Civic Center Square Coffee Table - 98122"
    },
    "generator": "Sketchfab-12.68.0",
    "version": "2.0"
  },
  "bufferViews": [
    {
      "buffer": 0,
      "byteLength": 1575504,
      "name": "floatBufferViews",
      "target": 34963
    },
    {
      "buffer": 0,
      "byteLength": 712008,
      "byteOffset": 1575504,
      "byteStride": 8,
      "name": "floatBufferViews",
      "target": 34962
    },
    {
      "buffer": 0,
      "byteLength": 2136024,
      "byteOffset": 2287512,
      "byteStride": 12,
      "name": "floatBufferViews",
      "target": 34962
    }
  ],
  "buffers": [
    {
      "byteLength": 4423536,
      "uri": "scene.bin"
    }
  ],
  "images": [
    {
      "uri": "textures/01_-_Default_baseColor.jpeg"
    },
    {
      "uri": "textures/Material_4_metallicRoughness.png"
    }
  ],
  "materials": [
    {
      "doubleSided": true,
      "name": "01_-_Default",
      "pbrMetallicRoughness": {
        "baseColorTexture": {
          "index": 0
        },
        "metallicFactor": 0.0,
        "roughnessFactor": 0.8131027702
      }
    },
    {
      "doubleSided": true,
      "name": "Material_4",
      "pbrMetallicRoughness": {
        "baseColorFactor": [
          0.0714984773,
          0.0714984773,
          0.0714984773,
          1.0
        ],
        "metallicRoughnessTexture": {
          "index": 1
        },
        "roughnessFactor": 0.8131027701515823
      }
    },
    {
      "doubleSided": true,
      "name": "PVC_Fb_Black",
      "pbrMetallicRoughness": {
        "baseColorFactor": [
          0.0,
          0.0,
          0.0,
          1.0
        ],
        "metallicFactor": 0.0
      }
    }
  ],
  "meshes": [
    {
      "name": "Rectangle002_01 - Default_0",
      "primitives": [
        {
          "attributes": {
            "NORMAL": 1,
            "POSITION": 0,
            "TEXCOORD_0": 2
          },
          "indices": 3,
          "material": 0,
          "mode": 4
        }
      ]
    },
    {
      "name": "Rectangle003_Material #4_0",
      "primitives": [
        {
          "attributes": {
            "NORMAL": 5,
            "POSITION": 4,
            "TEXCOORD_0": 6
          },
          "indices": 7,
          "material": 1,
          "mode": 4
        }
      ]
    },
    {
      "name": "Rectangle003_Material #4_0",
      "primitives": [
        {
          "attributes": {
            "NORMAL": 9,
            "POSITION": 8,
            "TEXCOORD_0": 10
          },
          "indices": 11,
          "material": 1,
          "mode": 4
        }
      ]
    },
    {
      "name": "Rectangle009_PVC Fb Black_0",
      "primitives": [
        {
          "attributes": {
            "NORMAL": 13,
            "POSITION": 12,
            "TEXCOORD_0": 14
          },
          "indices": 15,
          "material": 2,
          "mode": 4
        }
      ]
    }
  ],
  "nodes": [
    {
      "children": [
        1
      ],
      "matrix": [
        1.0,
        0.0,
        0.0,
        0.0,
        0.0,
        2.220446049250313e-16,
        -1.0,
        0.0,
        0.0,
        1.0,
        2.220446049250313e-16,
        0.0,
        0.0,
        0.0,
        0.0,
        1.0
      ],
      "name": "Sketchfab_model"
    },
    {
      "children": [
        2
      ],
      "matrix": [
        1.0,
        0.0,
        0.0,
        0.0,
        0.0,
        0.0,
        1.0,
        0.0,
        0.0,
        -1.0,
        0.0,
        0.0,
        0.0,
        0.0,
        0.0,
        1.0
      ],
      "name": "6890a0cd941f46febd63d7e51b503599.fbx"
    },
    {
      "children": [
        3,
        5,
        8
      ],
      "name": "RootNode"
    },
    {
      "children": [
        4
      ],
      "matrix": [
        -0.9999999999999887,
        1.2246469849340659e-16,
        -1.5099580265055077e-07,
        0.0,
        -1.5099580265055077e-07,
        -4.440892098500626e-16,
        0.9999999999999887,
        0.0,
        1.2246464555384738e-16,
        1.0,
        3.3306690738754696e-16,
        0.0,
        -0.0467986986041069,
        350.84002685546875,
        0.39205098152160645,
        1.0
      ],
      "name": "Rectangle002"
    },
    {
      "mesh": 0,
      "name": "Rectangle002_01 - Default_0"
    },
    {
      "children": [
        6,
        7
      ],
      "matrix": [
        -0.9999999999999889,
        1.2246467991473673e-16,
        -1.5099580265055075e-07,
        0.0,
        2.4722804222688385e-14,
        0.9999999999999867,
        -1.629206846213195e-07,
        0.0,
        1.5099580265054873e-07,
        -1.6292068462132135e-07,
        -0.9999999999999756,
        0.0,
        -1.0467658042907715,
        175.67002868652344,
        -375.00152587890625,
        1.0
      ],
      "name": "Rectangle003"
    },
    {
      "mesh": 1,
      "name": "Rectangle003_Material #4_0"
    },
    {
      "mesh": 2,
      "name": "Rectangle003_Material #4_0"
    },
    {
      "children": [
        9
      ],
      "matrix": [
        -0.9999999999999887,
        1.2246469849340659e-16,
        -1.5099580265055077e-07,
        0.0,
        -1.5099580265055077e-07,
        -4.440892098500626e-16,
        0.9999999999999887,
        0.0,
        1.2246464555384738e-16,
        1.0,
        3.3306690738754696e-16,
        0.0,
        -389.8337707519531,
        -4.134765625,
        390.803466796875,
        1.0
      ],
      "name": "Rectangle009"
    },
    {
      "mesh": 3,
      "name": "Rectangle009_PVC Fb Black_0"
    }
  ],
  "samplers": [
    {
      "magFilter": 9729,
      "minFilter": 9987,
      "wrapS": 10497,
      "wrapT": 10497
    }
  ],
  "scene": 0,
  "scenes": [
    {
      "name": "Sketchfab_Scene",
      "nodes": [
        0
      ]
    }
  ],
  "textures": [
    {
      "sampler": 0,
      "source": 0
    },
    {
      "sampler": 0,
      "source": 1
    }
  ]
}
